<svg width="366" height="131" viewBox="0 0 366 131" fill="none" xmlns="http://www.w3.org/2000/svg">
<rect width="366" height="131" fill="white"/>
<path d="M109.852 28.7188V38.375H114.961C116.867 38.375 118.352 37.9219 119.414 37.0156C120.508 36.0781 121.055 34.6094 121.055 32.6094C121.055 30.8594 120.43 29.5 119.18 28.5312C117.93 27.5312 116.398 27.0312 114.586 27.0312H111.961C110.555 27.0312 109.852 27.5938 109.852 28.7188ZM109.852 53C109.852 54.1562 110.555 54.7344 111.961 54.7344H114.68C116.867 54.7344 118.711 54.2031 120.211 53.1406C121.742 52.0469 122.508 50.4688 122.508 48.4062C122.508 46.0312 121.789 44.2812 120.352 43.1562C118.945 42.0312 117.164 41.4688 115.008 41.4688H109.852V53ZM115.523 57.6875H105.82V29.2344C105.82 28.2969 105.695 27.625 105.445 27.2188C105.227 26.7812 104.914 26.5156 104.508 26.4219C103.945 26.2656 103.523 26.0938 103.242 25.9062C102.992 25.7188 102.867 25.4531 102.867 25.1094C102.867 24.4219 103.289 24.0781 104.133 24.0781H115.008C118.227 24.0781 120.742 24.7812 122.555 26.1875C124.367 27.5625 125.273 29.5625 125.273 32.1875C125.273 34.0625 124.789 35.6562 123.82 36.9688C122.883 38.2812 121.742 39.1875 120.398 39.6875C122.273 40.1562 123.789 41.1406 124.945 42.6406C126.133 44.1094 126.727 46.0312 126.727 48.4062C126.727 51.2188 125.789 53.4688 123.914 55.1562C122.07 56.8438 119.273 57.6875 115.523 57.6875ZM136.242 38.8438H142.289C143.695 38.8438 144.727 38.5938 145.383 38.0938C146.039 37.5938 146.367 36.8906 146.367 35.9844C146.367 35.5156 146.711 35.2812 147.398 35.2812C148.117 35.2812 148.477 35.5156 148.477 35.9844V44.6094C148.477 45.1094 148.117 45.3594 147.398 45.3594C146.711 45.3594 146.367 45.1094 146.367 44.6094C146.367 43.7344 146.023 43.0312 145.336 42.5C144.68 41.9375 143.664 41.6562 142.289 41.6562H136.242V53C136.242 54.1562 136.945 54.7344 138.352 54.7344H145.102C146.508 54.7344 147.414 54.3906 147.82 53.7031C148.258 52.9844 148.555 52.25 148.711 51.5C148.836 50.8125 149.258 50.5 149.977 50.5625C150.695 50.625 151.055 50.9688 151.055 51.5938L150.727 57.6875H132.164V29.2344C132.164 28.2656 132.055 27.5781 131.836 27.1719C131.648 26.7656 131.352 26.5156 130.945 26.4219C130.383 26.2656 129.961 26.1094 129.68 25.9531C129.43 25.7656 129.305 25.4844 129.305 25.1094C129.305 24.4219 129.742 24.0781 130.617 24.0781H150.023L150.258 29.75C150.258 30.4062 149.898 30.75 149.18 30.7812C148.461 30.8125 148.07 30.4688 148.008 29.75C147.945 29.1875 147.68 28.5938 147.211 27.9688C146.742 27.3438 145.758 27.0312 144.258 27.0312H138.352C136.945 27.0312 136.242 27.6094 136.242 28.7656V38.8438ZM178.57 55.6719C177.852 56.1719 176.805 56.6562 175.43 57.125C174.055 57.5938 172.602 57.875 171.07 57.9688C166.102 58.2812 162.086 56.75 159.023 53.375C155.961 50 154.43 45.6094 154.43 40.2031C154.43 35.2969 155.633 31.2812 158.039 28.1562C160.477 25.0312 163.977 23.4688 168.539 23.4688C171.445 23.4688 173.914 24.2656 175.945 25.8594C177.977 27.4531 178.992 29.2344 178.992 31.2031H174.539C174.477 29.9531 173.852 28.8906 172.664 28.0156C171.508 27.1094 170.102 26.6562 168.445 26.6562C165.727 26.6562 163.43 27.8438 161.555 30.2188C159.711 32.5625 158.789 35.625 158.789 39.4062C158.789 45.0938 160.148 49.1406 162.867 51.5469C165.586 53.9531 168.586 54.9844 171.867 54.6406C172.961 54.5469 173.945 54.375 174.82 54.125C175.727 53.8438 176.477 53.5156 177.07 53.1406C177.477 52.8594 177.898 52.7656 178.336 52.8594C178.773 52.9531 179.086 53.1875 179.273 53.5625C179.461 53.9375 179.461 54.3281 179.273 54.7344C179.117 55.1094 178.883 55.4219 178.57 55.6719ZM188.555 57.6875H184.477V29.2812C184.477 28.3438 184.383 27.6719 184.195 27.2656C184.008 26.8281 183.695 26.5625 183.258 26.4688C182.695 26.3438 182.211 26.2188 181.805 26.0938C181.43 25.9375 181.242 25.6406 181.242 25.2031C181.242 24.4844 181.711 24.125 182.648 24.125H187.008C188.039 24.125 188.555 24.625 188.555 25.625V38.2344L199.711 24.125H202.289C202.758 24.125 203.07 24.3125 203.227 24.6875C203.383 25.0312 203.289 25.375 202.945 25.7188L191.977 39.3594L205.758 57.6875H200.883L188.555 41.0469V57.6875ZM217.664 38.2812L225.914 24.0781H228.07C228.602 24.0781 228.93 24.2656 229.055 24.6406C229.211 24.9844 229.164 25.3594 228.914 25.7656L219.492 41.8438V57.6875H215.367V41.8438L208.336 29.9844C207.586 28.7656 207.07 27.9219 206.789 27.4531C206.508 26.9531 206.227 26.6094 205.945 26.4219C205.57 26.2031 205.227 26.0312 204.914 25.9062C204.602 25.75 204.445 25.4844 204.445 25.1094C204.445 24.4219 204.914 24.0781 205.852 24.0781H209.695L217.664 38.2812ZM232.242 23.3281C232.242 22.4219 232.555 21.6562 233.18 21.0312C233.805 20.375 234.586 20.0469 235.523 20.0469C236.43 20.0469 237.211 20.375 237.867 21.0312C238.523 21.6562 238.914 22.3906 239.039 23.2344C239.258 24.8594 238.977 26.4531 238.195 28.0156C237.414 29.5781 236.258 30.8281 234.727 31.7656C234.102 32.1406 233.57 32.1406 233.133 31.7656C232.695 31.3594 232.758 30.9219 233.32 30.4531C233.82 30.0469 234.289 29.5469 234.727 28.9531C235.164 28.3281 235.461 27.625 235.617 26.8438C235.68 26.5312 235.523 26.375 235.148 26.375C234.398 26.375 233.727 26.0781 233.133 25.4844C232.539 24.8594 232.242 24.1406 232.242 23.3281ZM258.445 48.4062C258.352 47.0312 257.773 45.8125 256.711 44.75C255.648 43.6875 253.992 42.5625 251.742 41.375C249.273 40.125 247.367 38.7188 246.023 37.1562C244.711 35.5625 244.086 33.6094 244.148 31.2969C244.211 29.0156 245.07 27.1406 246.727 25.6719C248.414 24.2031 250.648 23.4688 253.43 23.4688C255.023 23.4688 256.352 23.5781 257.414 23.7969C258.477 23.9844 259.617 24.25 260.836 24.5938V28.3438C259.555 27.8125 258.289 27.375 257.039 27.0312C255.82 26.6875 254.617 26.5156 253.43 26.5156C252.086 26.5156 250.898 26.9688 249.867 27.875C248.867 28.75 248.367 29.9531 248.367 31.4844C248.367 32.8906 248.945 34.1406 250.102 35.2344C251.258 36.2969 253.039 37.4688 255.445 38.75C257.883 40.0625 259.695 41.5 260.883 43.0625C262.102 44.625 262.711 46.4375 262.711 48.5C262.711 51.0938 261.82 53.2969 260.039 55.1094C258.258 56.8906 255.711 57.8594 252.398 58.0156C251.18 58.0781 249.867 57.9688 248.461 57.6875C247.086 57.4062 245.961 56.9844 245.086 56.4219C244.555 56.0781 244.164 55.7031 243.914 55.2969C243.664 54.8906 243.664 54.4219 243.914 53.8906C244.133 53.3906 244.508 53.0625 245.039 52.9062C245.57 52.75 246.086 52.8438 246.586 53.1875C247.242 53.5938 248.133 53.9531 249.258 54.2656C250.414 54.5469 251.492 54.6562 252.492 54.5938C254.586 54.4688 256.133 53.8281 257.133 52.6719C258.133 51.5156 258.57 50.0938 258.445 48.4062ZM22.2891 105.688H18.2109V77.2344C18.2109 76.2969 18.1172 75.625 17.9297 75.2188C17.7422 74.7812 17.4297 74.5156 16.9922 74.4219C16.4297 74.2969 15.9453 74.1562 15.5391 74C15.1641 73.8438 14.9766 73.5625 14.9766 73.1562C14.9766 72.4375 15.4453 72.0781 16.3828 72.0781H20.7422C21.7734 72.0781 22.2891 72.5781 22.2891 73.5781V105.688ZM34.6172 72.0781L47.0391 97.8125V72.0781H50.8828V103.578C50.8828 104.984 50.1797 105.688 48.7734 105.688H46.8516L33.3047 78.2188V105.688H29.6953V77.2344C29.6953 76.2969 29.6328 75.6406 29.5078 75.2656C29.4141 74.8594 29.1172 74.5781 28.6172 74.4219C28.1172 74.2656 27.7109 74.125 27.3984 74C27.0859 73.8438 26.9297 73.5625 26.9297 73.1562C26.9297 72.4375 27.4297 72.0781 28.4297 72.0781H34.6172ZM60.3047 75.0312C58.7734 75.0312 57.7734 75.5 57.3047 76.4375C56.8359 77.375 56.5859 78.2031 56.5547 78.9219C56.5234 79.6094 56.1172 79.9531 55.3359 79.9531C54.5859 79.9219 54.2109 79.5781 54.2109 78.9219L54.4453 72.0781H78.2109L78.4453 78.9219C78.4453 79.5781 78.0547 79.9219 77.2734 79.9531C76.5234 79.9531 76.1328 79.6094 76.1016 78.9219C76.0703 78.1719 75.8203 77.3438 75.3516 76.4375C74.8828 75.5 73.8828 75.0312 72.3516 75.0312H68.3672V105.688H64.2891V75.0312H60.3047ZM86.6484 86.8438H92.6953C94.1016 86.8438 95.1328 86.5938 95.7891 86.0938C96.4453 85.5938 96.7734 84.8906 96.7734 83.9844C96.7734 83.5156 97.1172 83.2812 97.8047 83.2812C98.5234 83.2812 98.8828 83.5156 98.8828 83.9844V92.6094C98.8828 93.1094 98.5234 93.3594 97.8047 93.3594C97.1172 93.3594 96.7734 93.1094 96.7734 92.6094C96.7734 91.7344 96.4297 91.0312 95.7422 90.5C95.0859 89.9375 94.0703 89.6562 92.6953 89.6562H86.6484V101C86.6484 102.156 87.3516 102.734 88.7578 102.734H95.5078C96.9141 102.734 97.8203 102.391 98.2266 101.703C98.6641 100.984 98.9609 100.25 99.1172 99.5C99.2422 98.8125 99.6641 98.5 100.383 98.5625C101.102 98.625 101.461 98.9688 101.461 99.5938L101.133 105.688H82.5703V77.2344C82.5703 76.2656 82.4609 75.5781 82.2422 75.1719C82.0547 74.7656 81.7578 74.5156 81.3516 74.4219C80.7891 74.2656 80.3672 74.1094 80.0859 73.9531C79.8359 73.7656 79.7109 73.4844 79.7109 73.1094C79.7109 72.4219 80.1484 72.0781 81.0234 72.0781H100.43L100.664 77.75C100.664 78.4062 100.305 78.75 99.5859 78.7812C98.8672 78.8125 98.4766 78.4688 98.4141 77.75C98.3516 77.1875 98.0859 76.5938 97.6172 75.9688C97.1484 75.3438 96.1641 75.0312 94.6641 75.0312H88.7578C87.3516 75.0312 86.6484 75.6094 86.6484 76.7656V86.8438ZM116.602 74.9844H113.695C112.289 74.9844 111.586 75.5781 111.586 76.7656V105.688H107.508V77.2344C107.508 76.2656 107.398 75.5781 107.18 75.1719C106.992 74.7656 106.695 74.5156 106.289 74.4219C105.727 74.2656 105.305 74.0938 105.023 73.9062C104.773 73.7188 104.648 73.4531 104.648 73.1094C104.648 72.4219 105.086 72.0781 105.961 72.0781H116.508C119.914 72.0781 122.586 72.9062 124.523 74.5625C126.461 76.2188 127.43 78.4531 127.43 81.2656C127.43 84.3281 126.508 86.7031 124.664 88.3906C122.82 90.0469 120.57 90.9375 117.914 91.0625L127.477 105.688H122.555L112.945 90.7344C112.445 90.0781 112.32 89.4844 112.57 88.9531C112.82 88.4219 113.305 88.1562 114.023 88.1562H115.852C117.977 88.1562 119.727 87.5625 121.102 86.375C122.508 85.1875 123.211 83.4844 123.211 81.2656C123.242 79.3281 122.586 77.7969 121.242 76.6719C119.898 75.5469 118.352 74.9844 116.602 74.9844ZM136.242 105.688H132.164V77.2344C132.164 76.2969 132.07 75.625 131.883 75.2188C131.695 74.7812 131.383 74.5156 130.945 74.4219C130.383 74.2969 129.898 74.1562 129.492 74C129.117 73.8438 128.93 73.5625 128.93 73.1562C128.93 72.4375 129.398 72.0781 130.336 72.0781H134.695C135.727 72.0781 136.242 72.5781 136.242 73.5781V105.688ZM140.977 88.6719C140.977 83.6094 142.211 79.4844 144.68 76.2969C147.18 73.0781 150.602 71.4688 154.945 71.4688C159.258 71.4688 162.664 73.0781 165.164 76.2969C167.664 79.4844 168.914 83.6094 168.914 88.6719C168.914 93.7656 167.664 97.9219 165.164 101.141C162.664 104.359 159.258 105.969 154.945 105.969C150.602 105.969 147.18 104.359 144.68 101.141C142.211 97.9219 140.977 93.7656 140.977 88.6719ZM145.242 88.6719C145.242 93.1406 146.133 96.6094 147.914 99.0781C149.695 101.516 152.039 102.734 154.945 102.734C157.82 102.734 160.148 101.516 161.93 99.0781C163.742 96.6094 164.648 93.1406 164.648 88.6719C164.648 84.2344 163.742 80.7812 161.93 78.3125C160.148 75.8438 157.82 74.6094 154.945 74.6094C152.039 74.6094 149.695 75.8438 147.914 78.3125C146.133 80.7812 145.242 84.2344 145.242 88.6719ZM183.352 74.9844H180.445C179.039 74.9844 178.336 75.5781 178.336 76.7656V105.688H174.258V77.2344C174.258 76.2656 174.148 75.5781 173.93 75.1719C173.742 74.7656 173.445 74.5156 173.039 74.4219C172.477 74.2656 172.055 74.0938 171.773 73.9062C171.523 73.7188 171.398 73.4531 171.398 73.1094C171.398 72.4219 171.836 72.0781 172.711 72.0781H183.258C186.664 72.0781 189.336 72.9062 191.273 74.5625C193.211 76.2188 194.18 78.4531 194.18 81.2656C194.18 84.3281 193.258 86.7031 191.414 88.3906C189.57 90.0469 187.32 90.9375 184.664 91.0625L194.227 105.688H189.305L179.695 90.7344C179.195 90.0781 179.07 89.4844 179.32 88.9531C179.57 88.4219 180.055 88.1562 180.773 88.1562H182.602C184.727 88.1562 186.477 87.5625 187.852 86.375C189.258 85.1875 189.961 83.4844 189.961 81.2656C189.992 79.3281 189.336 77.7969 187.992 76.6719C186.648 75.5469 185.102 74.9844 183.352 74.9844ZM213.258 77.2344C213.258 76.2656 213.148 75.5781 212.93 75.1719C212.742 74.7656 212.414 74.5 211.945 74.375C211.477 74.25 211.102 74.1094 210.82 73.9531C210.539 73.7656 210.398 73.4844 210.398 73.1094C210.398 72.4219 210.836 72.0781 211.711 72.0781H217.945C219.133 72.0781 220.492 72.125 222.023 72.2188C223.555 72.2812 224.82 72.4062 225.82 72.5938C228.727 73.1562 231.117 74.75 232.992 77.375C234.867 79.9688 235.805 83.8594 235.805 89.0469C235.805 92.6406 235.336 95.5 234.398 97.625C233.492 99.7188 232.273 101.375 230.742 102.594C229.305 103.719 227.695 104.516 225.914 104.984C224.133 105.453 221.977 105.688 219.445 105.688H213.258V77.2344ZM221.039 102.734C224.227 102.734 226.773 101.625 228.68 99.4062C230.617 97.1875 231.586 93.7344 231.586 89.0469C231.586 84.4844 230.789 81.0156 229.195 78.6406C227.602 76.2344 225.102 75.0312 221.695 75.0312H219.445C218.039 75.0312 217.336 75.6094 217.336 76.7656V101C217.336 102.156 218.039 102.734 219.445 102.734H221.039ZM245.273 86.8438H251.32C252.727 86.8438 253.758 86.5938 254.414 86.0938C255.07 85.5938 255.398 84.8906 255.398 83.9844C255.398 83.5156 255.742 83.2812 256.43 83.2812C257.148 83.2812 257.508 83.5156 257.508 83.9844V92.6094C257.508 93.1094 257.148 93.3594 256.43 93.3594C255.742 93.3594 255.398 93.1094 255.398 92.6094C255.398 91.7344 255.055 91.0312 254.367 90.5C253.711 89.9375 252.695 89.6562 251.32 89.6562H245.273V101C245.273 102.156 245.977 102.734 247.383 102.734H254.133C255.539 102.734 256.445 102.391 256.852 101.703C257.289 100.984 257.586 100.25 257.742 99.5C257.867 98.8125 258.289 98.5 259.008 98.5625C259.727 98.625 260.086 98.9688 260.086 99.5938L259.758 105.688H241.195V77.2344C241.195 76.2656 241.086 75.5781 240.867 75.1719C240.68 74.7656 240.383 74.5156 239.977 74.4219C239.414 74.2656 238.992 74.1094 238.711 73.9531C238.461 73.7656 238.336 73.4844 238.336 73.1094C238.336 72.4219 238.773 72.0781 239.648 72.0781H259.055L259.289 77.75C259.289 78.4062 258.93 78.75 258.211 78.7812C257.492 78.8125 257.102 78.4688 257.039 77.75C256.977 77.1875 256.711 76.5938 256.242 75.9688C255.773 75.3438 254.789 75.0312 253.289 75.0312H247.383C245.977 75.0312 245.273 75.6094 245.273 76.7656V86.8438ZM277.945 96.4062C277.852 95.0312 277.273 93.8125 276.211 92.75C275.148 91.6875 273.492 90.5625 271.242 89.375C268.773 88.125 266.867 86.7188 265.523 85.1562C264.211 83.5625 263.586 81.6094 263.648 79.2969C263.711 77.0156 264.57 75.1406 266.227 73.6719C267.914 72.2031 270.148 71.4688 272.93 71.4688C274.523 71.4688 275.852 71.5781 276.914 71.7969C277.977 71.9844 279.117 72.25 280.336 72.5938V76.3438C279.055 75.8125 277.789 75.375 276.539 75.0312C275.32 74.6875 274.117 74.5156 272.93 74.5156C271.586 74.5156 270.398 74.9688 269.367 75.875C268.367 76.75 267.867 77.9531 267.867 79.4844C267.867 80.8906 268.445 82.1406 269.602 83.2344C270.758 84.2969 272.539 85.4688 274.945 86.75C277.383 88.0625 279.195 89.5 280.383 91.0625C281.602 92.625 282.211 94.4375 282.211 96.5C282.211 99.0938 281.32 101.297 279.539 103.109C277.758 104.891 275.211 105.859 271.898 106.016C270.68 106.078 269.367 105.969 267.961 105.688C266.586 105.406 265.461 104.984 264.586 104.422C264.055 104.078 263.664 103.703 263.414 103.297C263.164 102.891 263.164 102.422 263.414 101.891C263.633 101.391 264.008 101.062 264.539 100.906C265.07 100.75 265.586 100.844 266.086 101.188C266.742 101.594 267.633 101.953 268.758 102.266C269.914 102.547 270.992 102.656 271.992 102.594C274.086 102.469 275.633 101.828 276.633 100.672C277.633 99.5156 278.07 98.0938 277.945 96.4062ZM291.867 105.688H287.789V77.2344C287.789 76.2969 287.695 75.625 287.508 75.2188C287.32 74.7812 287.008 74.5156 286.57 74.4219C286.008 74.2969 285.523 74.1562 285.117 74C284.742 73.8438 284.555 73.5625 284.555 73.1562C284.555 72.4375 285.023 72.0781 285.961 72.0781H290.32C291.352 72.0781 291.867 72.5781 291.867 73.5781V105.688ZM321.07 89.6562V103.391C318.914 104.859 316.133 105.703 312.727 105.922C309.352 106.109 306.508 105.516 304.195 104.141C302.008 102.797 300.195 100.844 298.758 98.2812C297.352 95.6875 296.633 92.4375 296.602 88.5312C296.57 83.4375 297.773 79.3281 300.211 76.2031C302.648 73.0469 306.148 71.4688 310.711 71.4688C313.617 71.4688 316.086 72.2656 318.117 73.8594C320.148 75.4531 321.164 77.2344 321.164 79.2031H316.805C316.742 77.9531 316.102 76.8906 314.883 76.0156C313.695 75.1094 312.273 74.6562 310.617 74.6562C307.992 74.6562 305.711 75.7812 303.773 78.0312C301.836 80.25 300.867 83.5 300.867 87.7812C300.867 92.5 301.867 96.125 303.867 98.6562C305.898 101.156 308.523 102.469 311.742 102.594C312.367 102.625 313.148 102.609 314.086 102.547C315.023 102.453 315.992 102.219 316.992 101.844V94.5781C316.992 92.8594 316.68 91.7656 316.055 91.2969C315.43 90.7969 314.211 90.5469 312.398 90.5469C311.742 90.5469 311.414 90.1406 311.414 89.3281C311.414 88.5156 311.742 88.1094 312.398 88.1094H319.57C320.57 88.1094 321.07 88.625 321.07 89.6562ZM332.32 72.0781L344.742 97.8125V72.0781H348.586V103.578C348.586 104.984 347.883 105.688 346.477 105.688H344.555L331.008 78.2188V105.688H327.398V77.2344C327.398 76.2969 327.336 75.6406 327.211 75.2656C327.117 74.8594 326.82 74.5781 326.32 74.4219C325.82 74.2656 325.414 74.125 325.102 74C324.789 73.8438 324.633 73.5625 324.633 73.1562C324.633 72.4375 325.133 72.0781 326.133 72.0781H332.32Z" fill="black"/>
</svg>
